<svg xmlns="http://www.w3.org/2000/svg" viewBox="0 0 64 64" role="img" aria-label="Vera · Riordino archivio" data-theme="mparanza-plugin-icon-v1">
  <rect width="64" height="64" rx="14" fill="#171816"/>
  <path d="M49 0h1l14 14v1H49z" fill="#00B0F0"/>
  <circle cx="51" cy="50" r="7" fill="#00B0F0"/>
  <circle cx="51" cy="50" r="3" fill="#171816"/>

  <path d="M12 23a5 5 0 0 1 5-5h10l5 6h15a5 5 0 0 1 5 5v17a5 5 0 0 1-5 5H17a5 5 0 0 1-5-5z" fill="#F7F0DF"/>
  <path d="M20 32h20M20 40h13" stroke="#1F211D" stroke-width="3" stroke-linecap="round"/>
  <path d="m38 38 5 5 10-13" fill="none" stroke="#00B0F0" stroke-width="4" stroke-linecap="round" stroke-linejoin="round"/>
</svg>
