<svg xmlns="http://www.w3.org/2000/svg" viewBox="0 0 64 64" role="img" aria-label="Lucia" data-theme="mparanza-plugin-icon-v1">
  <rect width="64" height="64" rx="14" fill="#002060"/>
  <path d="M49 0h1l14 14v1H49z" fill="#0070C0"/>
  <circle cx="51" cy="50" r="7" fill="#0070C0"/>
  <circle cx="51" cy="50" r="3" fill="#002060"/>

  <path d="M22 20c0-7 4.4-11 10-11s10 4 10 11v8h-5l-1-9h-8l-1 9h-5z" fill="#00B0F0"/>
  <circle cx="32" cy="21" r="7.5" fill="#FFFFFF"/>
  <path d="M15 51c1.8-11.5 8.2-17 17-17s15.2 5.5 17 17z" fill="#FFFFFF"/>
  <path d="m23 35 9 10 9-10M32 45v6" fill="none" stroke="#002060" stroke-width="3.5" stroke-linecap="round" stroke-linejoin="round"/>
  <path d="m29 36 3 4 3-4" fill="#00B0F0"/>
</svg>
