<svg xmlns="http://www.w3.org/2000/svg" viewBox="0 0 64 64" role="img" aria-label="Client Intake" data-theme="mparanza-plugin-icon-v1">
  <rect width="64" height="64" rx="14" fill="#171816"/>
  <path d="M49 0h1l14 14v1H49z" fill="#7CB7A7"/>
  <circle cx="51" cy="50" r="7" fill="#7CB7A7"/>
  <circle cx="51" cy="50" r="3" fill="#171816"/>

  <path d="M12 24a5 5 0 0 1 5-5h10l5 6h15a5 5 0 0 1 5 5v15a5 5 0 0 1-5 5H17a5 5 0 0 1-5-5z" fill="#F7F0DF"/>
  <circle cx="28" cy="35" r="5" fill="#1F211D"/>
  <path d="M18 47c2-7 18-7 20 0" fill="none" stroke="#1F211D" stroke-width="4" stroke-linecap="round"/>
  <path d="M40 34h7M40 41h5" stroke="#7CB7A7" stroke-width="3" stroke-linecap="round"/>
</svg>
