<svg xmlns="http://www.w3.org/2000/svg" viewBox="0 0 64 64" role="img" aria-label="Optimize Prompt" data-theme="mparanza-plugin-icon-v1">
  <rect width="64" height="64" rx="14" fill="#171816"/>
  <path d="M49 0h1l14 14v1H49z" fill="#D89B3D"/>
  <circle cx="51" cy="50" r="7" fill="#D89B3D"/>
  <circle cx="51" cy="50" r="3" fill="#171816"/>

  <path d="M13 18h33a6 6 0 0 1 6 6v13a6 6 0 0 1-6 6H32l-10 8v-8h-9z" fill="#F7F0DF"/>
  <path d="M22 29h19M22 37h12" stroke="#1F211D" stroke-width="4" stroke-linecap="round"/>
  <path d="M48 12l2 6 6 2-6 2-2 6-2-6-6-2 6-2z" fill="#D89B3D"/>
</svg>
